<?xml version="1.0" encoding="ISO-8859-1" standalone="no"?><svg xmlns="http://www.w3.org/2000/svg" xmlns:xlink="http://www.w3.org/1999/xlink" version="1.1" ><g ><rect x="10" y="10" height="200" width="200" style="stroke-width:1.5; stroke:black; fill:white; " />
<rect x="230" y="10" height="200" width="200" style="stroke-width:1.5; stroke:black; fill:white; " />
<rect x="450" y="10" height="200" width="200" style="stroke-width:1.5; stroke:black; fill:white; " />
<rect x="670" y="10" height="200" width="200" style="stroke-width:1.5; stroke:black; fill:white; " />
</g>
<rect x="92.162" y="103.25" height="13.5" width="35.676" style="fill:blue; stroke:black; " />
<g style="stroke:orange; fill:#edd239; " ><circle cx="125.58800000000001" cy="107.75" r="2.25" transform="translate(0.0 0) " />
<circle cx="125.58800000000001" cy="107.75" r="2.25" transform="translate(-3.8971143170299736 -2.25) " />
<circle cx="125.58800000000001" cy="107.75" r="2.25" transform="translate(-7.794228634059947 0) " />
<circle cx="125.58800000000001" cy="107.75" r="2.25" transform="translate(-11.69134295108992 -2.25) " />
<circle cx="125.58800000000001" cy="107.75" r="2.25" transform="translate(-15.588457268119894 0) " />
<circle cx="125.58800000000001" cy="107.75" r="2.25" transform="translate(-19.48557158514987 -2.25) " />
<circle cx="125.58800000000001" cy="107.75" r="2.25" transform="translate(-23.38268590217984 0) " />
<circle cx="125.58800000000001" cy="107.75" r="2.25" transform="translate(-27.279800219209815 -2.25) " />
<circle cx="125.58800000000001" cy="107.75" r="2.25" transform="translate(-31.17691453623979 0) " />
<circle cx="125.58800000000001" cy="112.25" r="2.25" transform="translate(0.0 0) " />
<circle cx="125.58800000000001" cy="112.25" r="2.25" transform="translate(-3.8971143170299736 2.25) " />
<circle cx="125.58800000000001" cy="112.25" r="2.25" transform="translate(-7.794228634059947 0) " />
<circle cx="125.58800000000001" cy="112.25" r="2.25" transform="translate(-11.69134295108992 2.25) " />
<circle cx="125.58800000000001" cy="112.25" r="2.25" transform="translate(-15.588457268119894 0) " />
<circle cx="125.58800000000001" cy="112.25" r="2.25" transform="translate(-19.48557158514987 2.25) " />
<circle cx="125.58800000000001" cy="112.25" r="2.25" transform="translate(-23.38268590217984 0) " />
<circle cx="125.58800000000001" cy="112.25" r="2.25" transform="translate(-27.279800219209815 2.25) " />
<circle cx="125.58800000000001" cy="112.25" r="2.25" transform="translate(-31.17691453623979 0) " />
</g>
<text x="110.0" y="158.926" style="text-anchor:middle; " >17.838nm x 6.75nm</text>
<rect x="312.16200000000003" y="81.4" height="57.2" width="35.676" style="stroke:black; stroke-width:2; fill:green; " />
<text x="330.00000000000006" y="158.60000000000002" style="text-anchor:middle; " >17.838nm x 28.6nm</text>
<rect x="521.4" y="103.25" height="13.5" width="57.2" style="stroke:black; stroke-width:2; fill:red; " />
<text x="550.0" y="136.75" style="text-anchor:middle; " >28.6nm x 6.75nm</text>
<g ><g ><path d="M789.9999999999999 59.99999999999997 L820.895416 77.838 L820.895416 135.038 L789.9999999999999 117.19999999999997 Z " style="stroke:black; stroke-width:2; fill:transparent; " />
<path d="M809.204416 84.588 L778.309 66.74999999999997 L778.309 123.94999999999997 L809.204416 141.788 Z " style="stroke:black; stroke-width:1.5; fill:green; fill-opacity:0.75; " />
</g>
<g ><path d="M789.9999999999999 59.99999999999997 L778.309 66.74999999999997 L778.309 123.94999999999997 L789.9999999999999 117.19999999999997 Z " style="stroke:black; stroke-width:2; fill:transparent; " />
<path d="M820.895416 77.838 L809.204416 84.588 L809.204416 141.788 L820.895416 135.038 Z " style="stroke:black; stroke-width:1.5; fill:red; fill-opacity:0.75; " />
</g>
<rect x="516.1200923787528" y="-396.1200923787529" height="13.5" width="35.676" transform="matrix(0.866 0.5 -0.866 0.5 0 0) " style="fill:blue; fill-opacity:0.75; stroke:black; " />
</g>
<g ><rect x="10" y="230" height="200" width="200" style="stroke-width:1.5; stroke:black; fill:white; " />
<rect x="230" y="230" height="200" width="200" style="stroke-width:1.5; stroke:black; fill:white; " />
<rect x="450" y="230" height="200" width="200" style="stroke-width:1.5; stroke:black; fill:white; " />
<rect x="670" y="230" height="200" width="200" style="stroke-width:1.5; stroke:black; fill:white; " />
</g>
<rect x="98.007" y="319.875" height="20.25" width="23.986" style="fill:blue; stroke:black; " />
<g style="stroke:orange; fill:#edd239; " ><circle cx="119.74300000000001" cy="324.375" r="2.25" transform="translate(0.0 0) " />
<circle cx="119.74300000000001" cy="324.375" r="2.25" transform="translate(-3.8971143170299736 -2.25) " />
<circle cx="119.74300000000001" cy="324.375" r="2.25" transform="translate(-7.794228634059947 0) " />
<circle cx="119.74300000000001" cy="324.375" r="2.25" transform="translate(-11.69134295108992 -2.25) " />
<circle cx="119.74300000000001" cy="324.375" r="2.25" transform="translate(-15.588457268119894 0) " />
<circle cx="119.74300000000001" cy="324.375" r="2.25" transform="translate(-19.48557158514987 -2.25) " />
<circle cx="119.74300000000001" cy="328.875" r="2.25" transform="translate(0.0 0) " />
<circle cx="119.74300000000001" cy="328.875" r="2.25" transform="translate(-3.8971143170299736 2.25) " />
<circle cx="119.74300000000001" cy="328.875" r="2.25" transform="translate(-7.794228634059947 0) " />
<circle cx="119.74300000000001" cy="328.875" r="2.25" transform="translate(-11.69134295108992 2.25) " />
<circle cx="119.74300000000001" cy="328.875" r="2.25" transform="translate(-15.588457268119894 0) " />
<circle cx="119.74300000000001" cy="328.875" r="2.25" transform="translate(-19.48557158514987 2.25) " />
<circle cx="119.74300000000001" cy="337.875" r="2.25" transform="translate(0.0 0) " />
<circle cx="119.74300000000001" cy="337.875" r="2.25" transform="translate(-3.8971143170299736 -2.25) " />
<circle cx="119.74300000000001" cy="337.875" r="2.25" transform="translate(-7.794228634059947 0) " />
<circle cx="119.74300000000001" cy="337.875" r="2.25" transform="translate(-11.69134295108992 -2.25) " />
<circle cx="119.74300000000001" cy="337.875" r="2.25" transform="translate(-15.588457268119894 0) " />
<circle cx="119.74300000000001" cy="337.875" r="2.25" transform="translate(-19.48557158514987 -2.25) " />
</g>
<text x="110.0" y="363.861" style="text-anchor:middle; " >11.993nm x 10.125nm</text>
<rect x="318.007" y="301.4" height="57.2" width="23.986" style="stroke:black; stroke-width:2; fill:green; " />
<text x="330.0" y="378.59999999999997" style="text-anchor:middle; " >11.993nm x 28.6nm</text>
<rect x="521.4" y="319.875" height="20.25" width="57.2" style="stroke:black; stroke-width:2; fill:red; " />
<text x="550.0" y="360.125" style="text-anchor:middle; " >28.6nm x 10.125nm</text>
<g ><g ><path d="M789.9999999999999 280.0 L810.7718759999999 291.99299999999994 L810.7718759999999 349.1929999999999 L789.9999999999999 337.2 Z " style="stroke:black; stroke-width:2; fill:transparent; " />
<path d="M793.2353759999999 302.11799999999994 L772.4634999999998 290.125 L772.4634999999998 347.325 L793.2353759999999 359.3179999999999 Z " style="stroke:black; stroke-width:1.5; fill:green; fill-opacity:0.75; " />
</g>
<g ><path d="M789.9999999999999 280.0 L772.4634999999998 290.125 L772.4634999999998 347.325 L789.9999999999999 337.2 Z " style="stroke:black; stroke-width:2; fill:transparent; " />
<path d="M810.7718759999999 291.99299999999994 L793.2353759999999 302.11799999999994 L793.2353759999999 359.3179999999999 L810.7718759999999 349.1929999999999 Z " style="stroke:black; stroke-width:1.5; fill:red; fill-opacity:0.75; " />
</g>
<rect x="736.1200923787528" y="-176.12009237875287" height="20.25" width="23.986" transform="matrix(0.866 0.5 -0.866 0.5 0 0) " style="fill:blue; fill-opacity:0.75; stroke:black; " />
</g>
<g ><rect x="10" y="450" height="200" width="200" style="stroke-width:1.5; stroke:black; fill:white; " />
<rect x="230" y="450" height="200" width="200" style="stroke-width:1.5; stroke:black; fill:white; " />
<rect x="450" y="450" height="200" width="200" style="stroke-width:1.5; stroke:black; fill:white; " />
<rect x="670" y="450" height="200" width="200" style="stroke-width:1.5; stroke:black; fill:white; " />
</g>
<rect x="98.007" y="543.25" height="13.5" width="23.986" style="fill:blue; stroke:black; " />
<g style="stroke:orange; fill:#edd239; " ><circle cx="119.74300000000001" cy="547.75" r="2.25" transform="translate(0.0 0) " />
<circle cx="119.74300000000001" cy="547.75" r="2.25" transform="translate(-3.8971143170299736 -2.25) " />
<circle cx="119.74300000000001" cy="547.75" r="2.25" transform="translate(-7.794228634059947 0) " />
<circle cx="119.74300000000001" cy="547.75" r="2.25" transform="translate(-11.69134295108992 -2.25) " />
<circle cx="119.74300000000001" cy="547.75" r="2.25" transform="translate(-15.588457268119894 0) " />
<circle cx="119.74300000000001" cy="547.75" r="2.25" transform="translate(-19.48557158514987 -2.25) " />
<circle cx="119.74300000000001" cy="552.25" r="2.25" transform="translate(0.0 0) " />
<circle cx="119.74300000000001" cy="552.25" r="2.25" transform="translate(-3.8971143170299736 2.25) " />
<circle cx="119.74300000000001" cy="552.25" r="2.25" transform="translate(-7.794228634059947 0) " />
<circle cx="119.74300000000001" cy="552.25" r="2.25" transform="translate(-11.69134295108992 2.25) " />
<circle cx="119.74300000000001" cy="552.25" r="2.25" transform="translate(-15.588457268119894 0) " />
<circle cx="119.74300000000001" cy="552.25" r="2.25" transform="translate(-19.48557158514987 2.25) " />
</g>
<text x="110.0" y="587.236" style="text-anchor:middle; " >11.993nm x 6.75nm</text>
<rect x="318.007" y="507.2" height="85.6" width="23.986" style="stroke:black; stroke-width:2; fill:green; " />
<text x="330.0" y="612.8" style="text-anchor:middle; " >11.993nm x 42.8nm</text>
<rect x="507.2" y="543.25" height="13.5" width="85.6" style="stroke:black; stroke-width:2; fill:red; " />
<text x="550.0" y="576.75" style="text-anchor:middle; " >42.8nm x 6.75nm</text>
<g ><g ><path d="M789.9999999999999 500.0 L810.7718759999999 511.99299999999994 L810.7718759999999 597.593 L789.9999999999999 585.6 Z " style="stroke:black; stroke-width:2; fill:transparent; " />
<path d="M799.0808759999999 518.7429999999999 L778.3089999999999 506.75 L778.3089999999999 592.35 L799.0808759999999 604.343 Z " style="stroke:black; stroke-width:1.5; fill:green; fill-opacity:0.75; " />
</g>
<g ><path d="M789.9999999999999 500.0 L778.3089999999999 506.75 L778.3089999999999 592.35 L789.9999999999999 585.6 Z " style="stroke:black; stroke-width:2; fill:transparent; " />
<path d="M810.7718759999999 511.99299999999994 L799.0808759999999 518.7429999999999 L799.0808759999999 604.343 L810.7718759999999 597.593 Z " style="stroke:black; stroke-width:1.5; fill:red; fill-opacity:0.75; " />
</g>
<rect x="956.1200923787528" y="43.87990762124713" height="13.5" width="23.986" transform="matrix(0.866 0.5 -0.866 0.5 0 0) " style="fill:blue; fill-opacity:0.75; stroke:black; " />
</g>
<g ><rect x="10" y="670" height="200" width="200" style="stroke-width:1.5; stroke:black; fill:white; " />
<rect x="230" y="670" height="200" width="200" style="stroke-width:1.5; stroke:black; fill:white; " />
<rect x="450" y="670" height="200" width="200" style="stroke-width:1.5; stroke:black; fill:white; " />
<rect x="670" y="670" height="200" width="200" style="stroke-width:1.5; stroke:black; fill:white; " />
</g>
<rect x="74.625" y="763.25" height="13.5" width="70.75" style="fill:blue; stroke:black; " />
<g style="stroke:orange; fill:#edd239; " ><circle cx="143.125" cy="767.75" r="2.25" transform="translate(0.0 0) " />
<circle cx="143.125" cy="767.75" r="2.25" transform="translate(-3.8971143170299736 -2.25) " />
<circle cx="143.125" cy="767.75" r="2.25" transform="translate(-7.794228634059947 0) " />
<circle cx="143.125" cy="767.75" r="2.25" transform="translate(-11.69134295108992 -2.25) " />
<circle cx="143.125" cy="767.75" r="2.25" transform="translate(-15.588457268119894 0) " />
<circle cx="143.125" cy="767.75" r="2.25" transform="translate(-19.48557158514987 -2.25) " />
<circle cx="143.125" cy="767.75" r="2.25" transform="translate(-23.38268590217984 0) " />
<circle cx="143.125" cy="767.75" r="2.25" transform="translate(-27.279800219209815 -2.25) " />
<circle cx="143.125" cy="767.75" r="2.25" transform="translate(-31.17691453623979 0) " />
<circle cx="143.125" cy="767.75" r="2.25" transform="translate(-35.074028853269766 -2.25) " />
<circle cx="143.125" cy="767.75" r="2.25" transform="translate(-38.97114317029974 0) " />
<circle cx="143.125" cy="767.75" r="2.25" transform="translate(-42.86825748732971 -2.25) " />
<circle cx="143.125" cy="767.75" r="2.25" transform="translate(-46.76537180435968 0) " />
<circle cx="143.125" cy="767.75" r="2.25" transform="translate(-50.662486121389655 -2.25) " />
<circle cx="143.125" cy="767.75" r="2.25" transform="translate(-54.55960043841963 0) " />
<circle cx="143.125" cy="767.75" r="2.25" transform="translate(-58.4567147554496 -2.25) " />
<circle cx="143.125" cy="767.75" r="2.25" transform="translate(-62.35382907247958 0) " />
<circle cx="143.125" cy="767.75" r="2.25" transform="translate(-66.25094338950956 -2.25) " />
<circle cx="143.125" cy="772.25" r="2.25" transform="translate(0.0 0) " />
<circle cx="143.125" cy="772.25" r="2.25" transform="translate(-3.8971143170299736 2.25) " />
<circle cx="143.125" cy="772.25" r="2.25" transform="translate(-7.794228634059947 0) " />
<circle cx="143.125" cy="772.25" r="2.25" transform="translate(-11.69134295108992 2.25) " />
<circle cx="143.125" cy="772.25" r="2.25" transform="translate(-15.588457268119894 0) " />
<circle cx="143.125" cy="772.25" r="2.25" transform="translate(-19.48557158514987 2.25) " />
<circle cx="143.125" cy="772.25" r="2.25" transform="translate(-23.38268590217984 0) " />
<circle cx="143.125" cy="772.25" r="2.25" transform="translate(-27.279800219209815 2.25) " />
<circle cx="143.125" cy="772.25" r="2.25" transform="translate(-31.17691453623979 0) " />
<circle cx="143.125" cy="772.25" r="2.25" transform="translate(-35.074028853269766 2.25) " />
<circle cx="143.125" cy="772.25" r="2.25" transform="translate(-38.97114317029974 0) " />
<circle cx="143.125" cy="772.25" r="2.25" transform="translate(-42.86825748732971 2.25) " />
<circle cx="143.125" cy="772.25" r="2.25" transform="translate(-46.76537180435968 0) " />
<circle cx="143.125" cy="772.25" r="2.25" transform="translate(-50.662486121389655 2.25) " />
<circle cx="143.125" cy="772.25" r="2.25" transform="translate(-54.55960043841963 0) " />
<circle cx="143.125" cy="772.25" r="2.25" transform="translate(-58.4567147554496 2.25) " />
<circle cx="143.125" cy="772.25" r="2.25" transform="translate(-62.35382907247958 0) " />
<circle cx="143.125" cy="772.25" r="2.25" transform="translate(-66.25094338950956 2.25) " />
</g>
<text x="110.0" y="854.0" style="text-anchor:middle; " >35.375nm x 6.75nm</text>
<rect x="294.625" y="741.4" height="57.2" width="70.75" style="stroke:black; stroke-width:2; fill:green; " />
<text x="330.0" y="818.6" style="text-anchor:middle; " >35.375nm x 28.6nm</text>
<rect x="521.4" y="763.25" height="13.5" width="57.2" style="stroke:black; stroke-width:2; fill:red; " />
<text x="550.0" y="796.75" style="text-anchor:middle; " >28.6nm x 6.75nm</text>
<g ><g ><path d="M790.0 720.0 L851.2694999999999 755.375 L851.2694999999999 812.575 L790.0 777.2 Z " style="stroke:black; stroke-width:2; fill:transparent; " />
<path d="M839.5784999999998 762.125 L778.309 726.75 L778.309 783.95 L839.5784999999998 819.325 Z " style="stroke:black; stroke-width:1.5; fill:green; fill-opacity:0.75; " />
</g>
<g ><path d="M790.0 720.0 L778.309 726.75 L778.309 783.95 L790.0 777.2 Z " style="stroke:black; stroke-width:2; fill:transparent; " />
<path d="M851.2694999999999 755.375 L839.5784999999998 762.125 L839.5784999999998 819.325 L851.2694999999999 812.575 Z " style="stroke:black; stroke-width:1.5; fill:red; fill-opacity:0.75; " />
</g>
<rect x="1176.1200923787528" y="263.8799076212471" height="13.5" width="70.75" transform="matrix(0.866 0.5 -0.866 0.5 0 0) " style="fill:blue; fill-opacity:0.75; stroke:black; " />
</g>
</svg>
