<?xml version="1.0" encoding="ISO-8859-1" standalone="no"?><svg xmlns="http://www.w3.org/2000/svg" xmlns:xlink="http://www.w3.org/1999/xlink" version="1.1"  >
<rect x="100" y="100" height="100.0" width="100.0" style="fill:#edd239; stroke-width:2; stroke:black; "  />
<rect x="400.0" y="100" height="200.0" width="200.0" style="fill:#edd239; stroke-width:2; stroke:black; "  />
<rect x="100" y="400.0" height="200.0" width="100.0" style="fill:#edd239; stroke-width:2; stroke:black; "  />
<line x1="20" y1="100" x2="40" y2="100" style="stroke-width:1; stroke:black; "  />
<line x1="20" y1="100" x2="20" y2="80" style="stroke-width:1; stroke:black; "  />
<text x="40" y="100"  >
x</text>
<text x="20" y="80"  >
y</text>
<line x1="320.0" y1="100" x2="340.0" y2="100" style="stroke-width:1; stroke:black; "  />
<line x1="320.0" y1="100" x2="320.0" y2="80" style="stroke-width:1; stroke:black; "  />
<text x="340.0" y="100"  >
x</text>
<text x="320.0" y="80"  >
z</text>
<line x1="20" y1="400.0" x2="40" y2="400.0" style="stroke-width:1; stroke:black; "  />
<line x1="20" y1="400.0" x2="20" y2="380.0" style="stroke-width:1; stroke:black; "  />
<text x="40" y="400.0"  >
y</text>
<text x="20" y="380.0"  >
z</text>
<rect x="450.0" y="350" height="200.0" width="100.0" style="fill:#edd239; stroke-width:2; stroke:black; "  />
<rect x="520.7106781186548" y="420.71067811865476" height="200.0" width="100.0" style="fill:#edd239; stroke-width:2; stroke:black; "  />
<line x1="450.0" y1="350" x2="520.7106781186548" y2="420.71067811865476" style="stroke-width:1; stroke:black; "  />
<line x1="450.0" y1="550.0" x2="520.7106781186548" y2="620.7106781186548" style="stroke-width:1; stroke:black; "  />
<line x1="550.0" y1="350" x2="620.7106781186548" y2="420.71067811865476" style="stroke-width:1; stroke:black; "  />
</svg>
