<?xml version="1.0" encoding="ISO-8859-1" standalone="no"?><svg xmlns="http://www.w3.org/2000/svg" xmlns:xlink="http://www.w3.org/1999/xlink" version="1.1"  >
<text x="20" y="0"  >
Design 5</text>
<text x="0" y="0"  >
p3024</text>
<rect x="100" y="100" height="840.0" width="40.0" style="fill:#edd239; stroke-width:2; stroke:black; "  />
<line x1="20" y1="100" x2="40" y2="100" style="stroke-width:1; stroke:black; "  />
<line x1="20" y1="100" x2="20" y2="80" style="stroke-width:1; stroke:black; "  />
<text x="40" y="100"  >
x</text>
<text x="20" y="80"  >
y</text>
<rect x="100" y="990.0" height="90.0" width="40.0" style="fill:white; stroke:black; "  />
<g style="stroke:orange; fill:#edd239; "  >
<circle cx="134.375" cy="1001.25" r="5.625" transform="translate(0.0 0) "  />
<circle cx="134.375" cy="1001.25" r="5.625" transform="translate(-9.742785792574935 -5.625) "  />
<circle cx="134.375" cy="1001.25" r="5.625" transform="translate(-19.48557158514987 0) "  />
<circle cx="134.375" cy="1001.25" r="5.625" transform="translate(-29.2283573777248 -5.625) "  />
<circle cx="134.375" cy="1012.5" r="5.625" transform="translate(0.0 0) "  />
<circle cx="134.375" cy="1012.5" r="5.625" transform="translate(-9.742785792574935 5.625) "  />
<circle cx="134.375" cy="1012.5" r="5.625" transform="translate(-19.48557158514987 0) "  />
<circle cx="134.375" cy="1012.5" r="5.625" transform="translate(-29.2283573777248 5.625) "  />
<circle cx="134.375" cy="1035.0" r="5.625" transform="translate(0.0 0) "  />
<circle cx="134.375" cy="1035.0" r="5.625" transform="translate(-9.742785792574935 -5.625) "  />
<circle cx="134.375" cy="1035.0" r="5.625" transform="translate(-19.48557158514987 0) "  />
<circle cx="134.375" cy="1035.0" r="5.625" transform="translate(-29.2283573777248 -5.625) "  />
<circle cx="134.375" cy="1046.25" r="5.625" transform="translate(0.0 0) "  />
<circle cx="134.375" cy="1046.25" r="5.625" transform="translate(-9.742785792574935 5.625) "  />
<circle cx="134.375" cy="1046.25" r="5.625" transform="translate(-19.48557158514987 0) "  />
<circle cx="134.375" cy="1046.25" r="5.625" transform="translate(-29.2283573777248 5.625) "  />
<circle cx="134.375" cy="1068.75" r="5.625" transform="translate(0.0 0) "  />
<circle cx="134.375" cy="1068.75" r="5.625" transform="translate(-9.742785792574935 -5.625) "  />
<circle cx="134.375" cy="1068.75" r="5.625" transform="translate(-19.48557158514987 0) "  />
<circle cx="134.375" cy="1068.75" r="5.625" transform="translate(-29.2283573777248 -5.625) "  />
<circle cx="134.375" cy="1080.0" r="5.625" transform="translate(0.0 0) "  />
<circle cx="134.375" cy="1080.0" r="5.625" transform="translate(-9.742785792574935 5.625) "  />
<circle cx="134.375" cy="1080.0" r="5.625" transform="translate(-19.48557158514987 0) "  />
<circle cx="134.375" cy="1080.0" r="5.625" transform="translate(-29.2283573777248 5.625) "  />
<circle cx="134.375" cy="1102.5" r="5.625" transform="translate(0.0 0) "  />
<circle cx="134.375" cy="1102.5" r="5.625" transform="translate(-9.742785792574935 -5.625) "  />
<circle cx="134.375" cy="1102.5" r="5.625" transform="translate(-19.48557158514987 0) "  />
<circle cx="134.375" cy="1102.5" r="5.625" transform="translate(-29.2283573777248 -5.625) "  />
<circle cx="134.375" cy="1113.75" r="5.625" transform="translate(0.0 0) "  />
<circle cx="134.375" cy="1113.75" r="5.625" transform="translate(-9.742785792574935 5.625) "  />
<circle cx="134.375" cy="1113.75" r="5.625" transform="translate(-19.48557158514987 0) "  />
<circle cx="134.375" cy="1113.75" r="5.625" transform="translate(-29.2283573777248 5.625) "  />
<circle cx="134.375" cy="1136.25" r="5.625" transform="translate(0.0 0) "  />
<circle cx="134.375" cy="1136.25" r="5.625" transform="translate(-9.742785792574935 -5.625) "  />
<circle cx="134.375" cy="1136.25" r="5.625" transform="translate(-19.48557158514987 0) "  />
<circle cx="134.375" cy="1136.25" r="5.625" transform="translate(-29.2283573777248 -5.625) "  />
</g>
<rect x="170.0" y="100" height="90.0" width="840.0" style="fill:#edd239; stroke-width:2; stroke:black; "  />
<line x1="90.0" y1="100" x2="110.0" y2="100" style="stroke-width:1; stroke:black; "  />
<line x1="90.0" y1="100" x2="90.0" y2="80" style="stroke-width:1; stroke:black; "  />
<text x="110.0" y="100"  >
y</text>
<text x="90.0" y="80"  >
z</text>
<g  >
<rect x="763.9696961966998" y="376.03030380330017" height="90.0" width="40.0" style="fill:blue; stroke:black; "  />
<path d="M803.9696961966998 376.03030380330017 L803.9696961966998 466.03030380330017 L210.0 1060.0 L210.0 970.0 Z " style="fill:red; stroke:black; stroke-width:2; "  />
<path d="M763.9696961966998 376.03030380330017 L803.9696961966998 376.03030380330017 L210.0 970.0 L170.0 970.0 Z " style="fill:green; stroke:black; stroke-width:2; "  />
<rect x="170.0" y="970.0" height="90.0" width="40.0" style="fill:blue; stroke:black; "  />
</g>
</svg>
