<?xml version="1.0" encoding="ISO-8859-1" standalone="no"?><svg xmlns="http://www.w3.org/2000/svg" xmlns:xlink="http://www.w3.org/1999/xlink" version="1.1"  >
<rect x="100" y="100" height="67.5" width="62.978357377724805" style="fill:white; stroke:black; "  />
<g style="stroke:orange; fill:#edd239; "  >
<circle cx="157.35335737772482" cy="111.25" r="5.625" transform="translate(0.0 0) "  />
<circle cx="157.35335737772482" cy="111.25" r="5.625" transform="translate(-9.742785792574935 -5.625) "  />
<circle cx="157.35335737772482" cy="111.25" r="5.625" transform="translate(-19.48557158514987 0) "  />
<circle cx="157.35335737772482" cy="111.25" r="5.625" transform="translate(-29.2283573777248 -5.625) "  />
<circle cx="157.35335737772482" cy="111.25" r="5.625" transform="translate(-38.97114317029974 0) "  />
<circle cx="157.35335737772482" cy="111.25" r="5.625" transform="translate(-48.71392896287467 -5.625) "  />
<circle cx="157.35335737772482" cy="122.5" r="5.625" transform="translate(0.0 0) "  />
<circle cx="157.35335737772482" cy="122.5" r="5.625" transform="translate(-9.742785792574935 5.625) "  />
<circle cx="157.35335737772482" cy="122.5" r="5.625" transform="translate(-19.48557158514987 0) "  />
<circle cx="157.35335737772482" cy="122.5" r="5.625" transform="translate(-29.2283573777248 5.625) "  />
<circle cx="157.35335737772482" cy="122.5" r="5.625" transform="translate(-38.97114317029974 0) "  />
<circle cx="157.35335737772482" cy="122.5" r="5.625" transform="translate(-48.71392896287467 5.625) "  />
<circle cx="157.35335737772482" cy="145.0" r="5.625" transform="translate(0.0 0) "  />
<circle cx="157.35335737772482" cy="145.0" r="5.625" transform="translate(-9.742785792574935 -5.625) "  />
<circle cx="157.35335737772482" cy="145.0" r="5.625" transform="translate(-19.48557158514987 0) "  />
<circle cx="157.35335737772482" cy="145.0" r="5.625" transform="translate(-29.2283573777248 -5.625) "  />
<circle cx="157.35335737772482" cy="145.0" r="5.625" transform="translate(-38.97114317029974 0) "  />
<circle cx="157.35335737772482" cy="145.0" r="5.625" transform="translate(-48.71392896287467 -5.625) "  />
<circle cx="157.35335737772482" cy="156.25" r="5.625" transform="translate(0.0 0) "  />
<circle cx="157.35335737772482" cy="156.25" r="5.625" transform="translate(-9.742785792574935 5.625) "  />
<circle cx="157.35335737772482" cy="156.25" r="5.625" transform="translate(-19.48557158514987 0) "  />
<circle cx="157.35335737772482" cy="156.25" r="5.625" transform="translate(-29.2283573777248 5.625) "  />
<circle cx="157.35335737772482" cy="156.25" r="5.625" transform="translate(-38.97114317029974 0) "  />
<circle cx="157.35335737772482" cy="156.25" r="5.625" transform="translate(-48.71392896287467 5.625) "  />
</g>
</svg>
